<svg xmlns="http://www.w3.org/2000/svg" width="108.177" height="110.42" viewBox="0 0 108.177 110.42">
  <g id="Layer_x0020_1" transform="translate(-2499.2 -4374.09)">
    <g id="_2226623733760" transform="translate(2499.2 4374.09)">
      <path id="Path_121" data-name="Path 121" d="M2531.056,4374.09a2.17,2.17,0,0,0-2.166,2.185v47.9a2.182,2.182,0,0,0,2.166,2.185h47.9a2.186,2.186,0,0,0,2.184-2.185,50.128,50.128,0,0,0-50.067-50.068Z" transform="translate(-2472.965 -4374.09)" fill="#ffd966" fill-rule="evenodd"/>
      <path id="Path_122" data-name="Path 122" d="M2577.125,4467.417l-30.025-38.6v-47.146a2.187,2.187,0,0,0-2.185-2.186c-25.2,0-45.716,22.472-45.716,50.067a50.114,50.114,0,0,0,50.067,50.067,37.108,37.108,0,0,0,27.5-9.211,2.17,2.17,0,0,0,.339-3.014Z" transform="translate(-2499.2 -4369.318)" fill="#0d94fb" fill-rule="evenodd"/>
      <path id="Path_123" data-name="Path 123" d="M2576.9,4405.22h-43.531a2.168,2.168,0,0,0-1.676,3.541l28.292,35.036a2.168,2.168,0,0,0,1.545.811h.151a2.209,2.209,0,0,0,1.488-.584,50.351,50.351,0,0,0,15.936-36.618,2.17,2.17,0,0,0-2.185-2.166Z" transform="translate(-2470.924 -4346.582)" fill="#0d94fb" fill-rule="evenodd"/>
    </g>
  </g>
</svg>
