<svg xmlns="http://www.w3.org/2000/svg" width="215.776" height="188.247" viewBox="0 0 215.776 188.247">
  <g id="Layer_x0020_1" transform="translate(-5829.833 -6035.466)">
    <g id="_2226414141072">
      <path id="Path_96" data-name="Path 96" d="M5995.64,6048.6l-42.01,72.76h39.19c20.55,0,43.44,23.48,36.63,51.32,25.46-43.27,21.72-93.26-17.54-123.52-6.47-4.99-14.04-4.32-16.27-.57Z" fill="#363636" fill-rule="evenodd"/>
      <path id="Path_97" data-name="Path 97" d="M5900.31,6131.04a42.27,42.27,0,0,1-42.15-42.15v-2.2a92.754,92.754,0,0,0,0,88.7c15.72,28.76,46.27,47.04,81.33,48.27,40.42,1.41,76.03-26.01,81.33-50.47,4.91-22.66-17.55-44.27-42.15-42.15H5900.3Zm80.17,25.93a10.78,10.78,0,1,1-10.78,10.78A10.784,10.784,0,0,1,5980.48,6156.97Z" fill="#363636" fill-rule="evenodd"/>
      <g id="Group_54" data-name="Group 54">
        <path id="Path_98" data-name="Path 98" d="M5862.76,6060.82a13.677,13.677,0,1,1-4.64,23.23A23.652,23.652,0,0,1,5862.76,6060.82Z" fill="#363636" fill-rule="evenodd"/>
        <path id="Path_99" data-name="Path 99" d="M5853.52,6060.82a12.077,12.077,0,1,1-.01,0Z" fill="#363636" fill-rule="evenodd"/>
      </g>
      <path id="Path_100" data-name="Path 100" d="M5944.07,6120.5l41.73-72.29c-29-16.78-64.17-16.91-93.7-.86a34.978,34.978,0,0,1-25.5,43.77c9.28,34.03,40.39,29.37,77.47,29.37Z" fill="#363636" fill-rule="evenodd"/>
    </g>
  </g>
</svg>
