<svg xmlns="http://www.w3.org/2000/svg" xmlns:xlink="http://www.w3.org/1999/xlink" width="161.22" height="161.22" viewBox="0 0 161.22 161.22">
  <defs>
    <clipPath id="clip-path">
      <rect id="Rectangle_26" data-name="Rectangle 26" width="114" height="114" rx="24" transform="translate(840 1313.39) rotate(45)" fill="#0d94fb"/>
    </clipPath>
    <linearGradient id="linear-gradient" x1="0.258" y1="0.087" x2="0.457" y2="1.209" gradientUnits="objectBoundingBox">
      <stop offset="0" stop-color="#0d94fb" stop-opacity="0"/>
      <stop offset="1" stop-color="#f8f8f8"/>
    </linearGradient>
  </defs>
  <g id="Group_67" data-name="Group 67" transform="translate(-759.39 -1313.39)">
    <rect id="Rectangle_27" data-name="Rectangle 27" width="114" height="114" rx="24" transform="translate(840 1313.39) rotate(45)" fill="#0d94fb"/>
    <g id="Mask_Group_6" data-name="Mask Group 6" clip-path="url(#clip-path)">
      <rect id="Rectangle_25" data-name="Rectangle 25" width="114" height="114" rx="24" transform="translate(882 1313.39) rotate(45)" fill="url(#linear-gradient)"/>
    </g>
    <g id="user_1_" data-name="user(1)" transform="translate(818 1368)">
      <path id="Path_126" data-name="Path 126" d="M99.474,24.884a12.039,12.039,0,0,0,8.8-3.645,12.038,12.038,0,0,0,3.645-8.8,12.04,12.04,0,0,0-3.645-8.8,12.439,12.439,0,0,0-17.594,0,12.039,12.039,0,0,0-3.645,8.8,12.038,12.038,0,0,0,3.646,8.8A12.041,12.041,0,0,0,99.474,24.884Zm0,0" transform="translate(-78.251)" fill="#fff"/>
      <path id="Path_127" data-name="Path 127" d="M42.993,262.086a30.732,30.732,0,0,0-.419-3.264,25.717,25.717,0,0,0-.8-3.282,16.21,16.21,0,0,0-1.349-3.061,11.549,11.549,0,0,0-2.034-2.651,8.97,8.97,0,0,0-2.922-1.836,10.1,10.1,0,0,0-3.731-.675,3.787,3.787,0,0,0-2.022.858c-.606.4-1.315.852-2.107,1.358a12.071,12.071,0,0,1-2.726,1.2,10.584,10.584,0,0,1-6.668,0,12.043,12.043,0,0,1-2.724-1.2c-.784-.5-1.493-.958-2.109-1.359a3.781,3.781,0,0,0-2.021-.858,10.087,10.087,0,0,0-3.73.676,8.962,8.962,0,0,0-2.923,1.836,11.551,11.551,0,0,0-2.034,2.651,16.242,16.242,0,0,0-1.349,3.061,25.779,25.779,0,0,0-.8,3.281A30.622,30.622,0,0,0,.1,262.087c-.069.988-.1,2.014-.1,3.05a8.578,8.578,0,0,0,2.548,6.49,9.171,9.171,0,0,0,6.565,2.395H33.985a9.169,9.169,0,0,0,6.564-2.395,8.574,8.574,0,0,0,2.548-6.49c0-1.041-.035-2.068-.1-3.051Zm0,0" transform="translate(0 -222.364)" fill="#fff"/>
    </g>
  </g>
</svg>
