<svg xmlns="http://www.w3.org/2000/svg" xmlns:xlink="http://www.w3.org/1999/xlink" width="161.22" height="161.22" viewBox="0 0 161.22 161.22">
  <defs>
    <clipPath id="clip-path">
      <rect width="161.22" height="161.22" fill="none"/>
    </clipPath>
    <clipPath id="clip-path-2">
      <rect id="Rectangle_30" data-name="Rectangle 30" width="114" height="114" rx="24" transform="translate(840 1313.39) rotate(45)" fill="#0d94fb"/>
    </clipPath>
    <linearGradient id="linear-gradient" x1="0.258" y1="0.087" x2="0.457" y2="1.209" gradientUnits="objectBoundingBox">
      <stop offset="0" stop-color="#0d94fb" stop-opacity="0"/>
      <stop offset="1" stop-color="#f8f8f8"/>
    </linearGradient>
  </defs>
  <g id="Group_351" data-name="Group 351" transform="translate(4053.61 -2626.39)">
    <g id="Repeat_Grid_14" data-name="Repeat Grid 14" transform="translate(-4053.61 2626.39)" clip-path="url(#clip-path)">
      <g id="Group_68" data-name="Group 68" transform="translate(-970.39 -1313.39)">
        <rect id="Rectangle_28" data-name="Rectangle 28" width="114" height="114" rx="24" transform="translate(1051 1313.39) rotate(45)" fill="#0d94fb"/>
        <g id="Mask_Group_7" data-name="Mask Group 7" transform="translate(211)" clip-path="url(#clip-path-2)">
          <rect id="Rectangle_29" data-name="Rectangle 29" width="114" height="114" rx="24" transform="translate(882 1313.39) rotate(45)" fill="url(#linear-gradient)"/>
        </g>
      </g>
    </g>
    <g id="data-science" transform="translate(-3995.922 2683.581)">
      <path id="Path_695" data-name="Path 695" d="M179.953,151.5h-13.61v2.6H165v2.686h1.343v2.776H165v2.686h1.343v2.776H165v2.686h1.343v2.6h13.61v-2.6H181.3V165.02h-1.343v-2.776H181.3v-2.686h-1.343v-2.776H181.3V154.1h-1.343Zm0,0" transform="translate(-150.226 -137.481)" fill="#fff"/>
      <path id="Path_696" data-name="Path 696" d="M45.081,28.56a30.5,30.5,0,0,0-1.888-5.151c2.49-5.332,3.294-10.593,2.081-14.777A5.356,5.356,0,0,1,42.81,9.809a17.2,17.2,0,0,1-.8,9.379c-.13.389-.272.779-.423,1.17A44.159,44.159,0,0,0,34.746,11.6a44.149,44.149,0,0,0-8.762-6.839c.391-.151.781-.293,1.17-.423a17.2,17.2,0,0,1,9.379-.8A5.355,5.355,0,0,1,37.71,1.068C33.526-.145,28.265.659,22.933,3.148A30.523,30.523,0,0,0,17.782,1.26C11.728-.33,6.6.587,3.346,3.844S-.828,12.227.762,18.28A30.5,30.5,0,0,0,2.65,23.431C.16,28.763-.644,34.024.569,38.208a5.357,5.357,0,0,1,2.463-1.177,17.206,17.206,0,0,1,.8-9.379q.2-.583.424-1.17A44.149,44.149,0,0,0,11.1,35.244a44.139,44.139,0,0,0,8.762,6.839c-.391.151-.781.293-1.17.423a17.2,17.2,0,0,1-9.379.8,5.349,5.349,0,0,1-1.177,2.464,14.9,14.9,0,0,0,4.151.558,25.6,25.6,0,0,0,10.628-2.638,30.5,30.5,0,0,0,5.15,1.887,21.735,21.735,0,0,0,5.5.762A12.243,12.243,0,0,0,42.5,43c3.257-3.256,4.174-8.383,2.583-14.436ZM3.359,17.6C2.021,12.506,2.691,8.3,5.244,5.743a9.643,9.643,0,0,1,7.041-2.558,19.061,19.061,0,0,1,4.814.673,26.394,26.394,0,0,1,2.774.9A45.119,45.119,0,0,0,4.261,20.371a26.474,26.474,0,0,1-.9-2.774ZM13,33.346a40.41,40.41,0,0,1-7.358-9.918A41.965,41.965,0,0,1,22.93,6.136a40.41,40.41,0,0,1,9.918,7.358,40.4,40.4,0,0,1,7.358,9.918,40.644,40.644,0,0,1-7.358,9.934A40.652,40.652,0,0,1,22.914,40.7,40.41,40.41,0,0,1,13,33.346ZM40.6,41.1c-2.553,2.553-6.763,3.223-11.854,1.885a26.43,26.43,0,0,1-2.773-.9,44,44,0,0,0,8.775-6.837,43.983,43.983,0,0,0,6.836-8.776,26.385,26.385,0,0,1,.9,2.774c1.338,5.092.669,9.3-1.885,11.855Zm0,0" transform="translate(0 0)" fill="#fff"/>
      <path id="Path_697" data-name="Path 697" d="M442.372,18.186a2.686,2.686,0,1,1-2.686-2.686A2.686,2.686,0,0,1,442.372,18.186Zm0,0" transform="translate(-397.872 -13.658)" fill="#fff"/>
      <path id="Path_698" data-name="Path 698" d="M20.372,440.186a2.686,2.686,0,1,1-2.686-2.686A2.686,2.686,0,0,1,20.372,440.186Zm0,0" transform="translate(-13.657 -397.874)" fill="#fff"/>
    </g>
  </g>
</svg>
