<svg xmlns="http://www.w3.org/2000/svg" width="128.087" height="108.566" viewBox="0 0 128.087 108.566">
  <g id="Layer_x0020_1" transform="translate(-2489.68 -4254.83)">
    <g id="_2226625642528" transform="translate(2507.864 4261.331)">
      <path id="Path_124" data-name="Path 124" d="M2593.382,4268.119a3.259,3.259,0,0,0-.981-2.333l-1.482-1.444a11.271,11.271,0,0,0-15.946.129l-1.259,1.278a4.694,4.694,0,0,1-6.612.056l-1.093-1.075a11.271,11.271,0,0,0-15.947.129l-.63.629a4.694,4.694,0,0,1-6.611.055l-.481-.48a11.27,11.27,0,0,0-15.947.129,4.652,4.652,0,0,1-6.612.055l-.074-.074a11.314,11.314,0,0,0-15.947.129l-.555.555a3.261,3.261,0,0,0-.945,2.333l.259,31.114a45.529,45.529,0,0,0,45.523,45.134h.371a45.529,45.529,0,0,0,45.153-45.893l-.259-30.448Zm-61.914,7.316a3.893,3.893,0,0,1,2.8-1.186,3.968,3.968,0,0,1,2.87,6.76,3.9,3.9,0,0,1-2.815,1.186h-.037a3.98,3.98,0,0,1-2.833-6.778Zm-9.353,19.706a5.714,5.714,0,0,1-.038-11.427h.037a5.713,5.713,0,0,1,.037,11.427h-.056Zm52.543,22.632v.2a.266.266,0,0,1-.037.111l-.056.167-.056.111a1.094,1.094,0,0,1-.092.148c-.019.037-.056.055-.075.092l-.111.111c-.037.018-.074.055-.111.074a.568.568,0,0,1-.148.074l-.111.055a.553.553,0,0,1-.167.037c-.037,0-.093.019-.13.019h-.056a.9.9,0,0,1-.222-.019h0a5.492,5.492,0,0,1-1.667-.592,6.1,6.1,0,0,1-.871-.593,6.009,6.009,0,0,1-.833-.852c-.148-.186-.3-.389-.444-.593a13.063,13.063,0,0,1-1.093-1.889c-.278-.555-.482-1.111-.686-1.629a3.652,3.652,0,0,1-.148-.407c-.037-.13-.093-.26-.13-.371a1.9,1.9,0,0,0-.13-.278c-.019-.018-.019-.037-.037-.055a1.856,1.856,0,0,0-.167-.2h0a.858.858,0,0,0-.223-.167c-.019,0-.037-.018-.056-.038-.074-.037-.148-.073-.241-.111h-.018a1.028,1.028,0,0,0-.259-.055h-.352a1.483,1.483,0,0,0-.277.073c-.019,0-.037.019-.074.019a1.764,1.764,0,0,0-.259.147h0a39.11,39.11,0,0,1-3.76,2.426c-.24.13-.481.278-.722.408-.481.278-.981.518-1.5.777a33.386,33.386,0,0,1-3.3,1.426c-.87.315-1.778.611-2.7.871a1.521,1.521,0,0,0-1.111,1.3,1.388,1.388,0,0,0,.074.611c.13.389.241.76.352,1.13.055.222.111.425.167.63a.94.94,0,0,1,.037.222v.315a.35.35,0,0,1-.019.129.17.17,0,0,1-.018.092.269.269,0,0,1-.037.111c0,.038-.019.056-.019.074a.266.266,0,0,0-.037.111.1.1,0,0,1-.037.074.383.383,0,0,1-.074.111c0,.019-.019.038-.037.074a.564.564,0,0,1-.093.13.065.065,0,0,1-.019.037,1.1,1.1,0,0,1-.13.149c0,.018-.018.018-.037.037a.741.741,0,0,1-.13.111c-.018.019-.037.038-.055.038a.41.41,0,0,1-.111.074.1.1,0,0,1-.074.037l-.111.055c-.037.018-.056.018-.074.037a.279.279,0,0,1-.112.037c-.037.019-.055.019-.074.038-.037,0-.093.018-.13.018-.019,0-.037.018-.074.018s-.093.018-.148.018h-.093a.324.324,0,0,1-.13-.018h-.074a.93.93,0,0,1-.223-.037h0a29.5,29.5,0,0,1-4.815-1.723l-.833-.389a10.645,10.645,0,0,1-3.482-2.686,35.057,35.057,0,0,1-4.7-.8c-.982-.241-1.926-.5-2.815-.8a34.777,34.777,0,0,1-4.815-1.963c-.574-.278-1.13-.574-1.629-.872-.426-.24-.833-.48-1.222-.7a30.265,30.265,0,0,1-2.723-1.869,2.391,2.391,0,0,1-.926-1.927v-.037a2.014,2.014,0,0,1,.148-.722,1.809,1.809,0,0,1,.24-.5,19.727,19.727,0,0,1,1.482-2.018,25.3,25.3,0,0,1,15.168-9.02v-.167h0v-.408c0-.148.019-.314.019-.519.019-.186.037-.371.056-.592a1.987,1.987,0,0,1,.037-.334c.037-.222.074-.445.111-.685.074-.372.167-.76.278-1.148s.259-.8.426-1.223c.075-.148.13-.3.186-.426.074-.129.13-.277.2-.407a8.783,8.783,0,0,1,1.093-1.593,2.757,2.757,0,0,1,.223-.24,1.549,1.549,0,0,1,.259-.223l.111-.055c.074-.038.13-.074.2-.112a.35.35,0,0,1,.13-.037c.055-.018.129-.038.185-.056a.324.324,0,0,0,.13-.018c.056,0,.111-.018.167-.018h.019c.074,0,.13.018.2.018a.473.473,0,0,1,.148.018.564.564,0,0,1,.186.074c.037.018.092.018.13.038.074.037.129.073.2.111a.371.371,0,0,1,.111.075,1.528,1.528,0,0,1,.259.24h0c.13.148.259.315.407.463.149.167.315.315.482.481h0a3.054,3.054,0,0,0,.259.24c.129.13.277.241.407.352.148.129.314.241.463.371.2.148.444.3.667.445a6.545,6.545,0,0,0,2.333.871c1.7.277,3.371.445,4.667.555.426.038.815.056,1.167.074a2.083,2.083,0,0,1,1.371.648,2.149,2.149,0,0,1,.463.8c.111.352.2.76.3,1.167a8.259,8.259,0,0,1,.129,1.2c.037.686.019,1.334,0,1.742.223.092.445.167.648.259a34.392,34.392,0,0,1,3.426,1.63,29.8,29.8,0,0,1,3.241,2.056,1.031,1.031,0,0,0,.278.147c.019,0,.037.018.074.018a1.5,1.5,0,0,0,.277.074h.352a.763.763,0,0,0,.277-.074c.019,0,.037-.018.056-.018a2.07,2.07,0,0,0,.2-.111c.018-.018.037-.037.055-.037a1.983,1.983,0,0,0,.223-.186.064.064,0,0,0,.019-.038,1.443,1.443,0,0,0,.148-.2.1.1,0,0,0,.037-.074c.037-.092.074-.186.111-.3a14.486,14.486,0,0,1,1.889-4.631,5.66,5.66,0,0,1,3.167-2.37h0a.981.981,0,0,1,.314-.037h0a1.434,1.434,0,0,1,.3.037c.037,0,.055.018.092.037a.661.661,0,0,1,.167.074c.037.018.056.038.093.056a.806.806,0,0,1,.13.111l.074.074c.037.037.074.092.111.129a.322.322,0,0,0,.075.092.639.639,0,0,0,.074.167.266.266,0,0,1,.037.111c.019.055.019.129.037.185v.092a.914.914,0,0,1-.037.315,13.688,13.688,0,0,0-.426,2.444,6.25,6.25,0,0,0-.019.833c.019.556.037,1.075.037,1.575a6.917,6.917,0,0,1-.759,3.722,4.732,4.732,0,0,1-.759.853,1.706,1.706,0,0,0,.018,2.537,4.7,4.7,0,0,1,.667.685,3.449,3.449,0,0,1,.389.611,4.589,4.589,0,0,1,.371.927,13.644,13.644,0,0,1,.426,2.833c.019.259.037.518.037.8a10.213,10.213,0,0,0,.5,2.463c.093.26.167.5.259.741a.969.969,0,0,1,.074.314v.111Z" transform="translate(-2502.259 -4261.101)" fill="#0d94fb" fill-rule="evenodd"/>
    </g>
    <path id="Path_125" data-name="Path 125" d="M2495.68,4283.87c0,29.762,25.984,53.9,58.043,53.9s58.043-24.132,58.043-53.9" transform="translate(0 19.632)" fill="none" stroke="#ffd966" stroke-miterlimit="2.613" stroke-width="12" fill-rule="evenodd"/>
    <line id="Line_15" data-name="Line 15" y1="42.69" transform="translate(2495.68 4260.83)" fill="none" stroke="#ffd966" stroke-linecap="round" stroke-linejoin="round" stroke-miterlimit="2.613" stroke-width="12"/>
    <line id="Line_16" data-name="Line 16" y1="42.69" transform="translate(2611.767 4260.83)" fill="none" stroke="#ffd966" stroke-linecap="round" stroke-linejoin="round" stroke-miterlimit="2.613" stroke-width="12"/>
  </g>
</svg>
