<svg xmlns="http://www.w3.org/2000/svg" width="114.355" height="98.815" viewBox="0 0 114.355 98.815">
  <g id="Group_84" data-name="Group 84" transform="translate(1312 -2342)">
    <g id="Group_83" data-name="Group 83">
      <path id="Path_146" data-name="Path 146" d="M5443.69,4183.65a2.733,2.733,0,0,0-.81-1.93l-1.22-1.2a9.344,9.344,0,0,0-13.21.11l-1.04,1.06a3.863,3.863,0,0,1-5.47.05l-.9-.89a9.344,9.344,0,0,0-13.21.11l-.52.52a3.863,3.863,0,0,1-5.47.05l-.4-.4a9.344,9.344,0,0,0-13.21.11,3.875,3.875,0,0,1-5.48.05l-.06-.06a9.344,9.344,0,0,0-13.21.11l-.45.46a2.774,2.774,0,0,0-.79,1.94l.22,25.78a37.729,37.729,0,0,0,37.72,37.41h.32a37.729,37.729,0,0,0,37.41-38.04l-.21-25.24Zm-51.31,6.06a3.236,3.236,0,0,1,2.33-.98,3.323,3.323,0,0,1,3.33,3.27,3.3,3.3,0,0,1-3.28,3.32h-.03a3.317,3.317,0,0,1-3.3-3.27,3.264,3.264,0,0,1,.95-2.34Zm-7.74,16.33a4.744,4.744,0,0,1-4.73-4.69,4.729,4.729,0,0,1,4.69-4.76h.04a4.73,4.73,0,0,1,.04,9.46h-.04Zm43.54,18.77a.83.83,0,0,1-.01.16c0,.04-.02.06-.02.09-.02.05-.03.09-.05.14a.393.393,0,0,1-.05.09c-.02.04-.05.08-.07.12a.238.238,0,0,1-.07.07.281.281,0,0,1-.1.09l-.09.06a1.247,1.247,0,0,1-.12.07c-.03.01-.06.03-.1.04s-.09.02-.13.04c-.04,0-.07.01-.11.01-.02,0-.03.01-.05.01a1.077,1.077,0,0,1-.18-.02h0a4.42,4.42,0,0,1-1.38-.49,4.759,4.759,0,0,1-1.41-1.19c-.13-.16-.25-.32-.37-.49a11.861,11.861,0,0,1-.91-1.57c-.22-.46-.41-.92-.57-1.35l-.12-.33c-.04-.1-.07-.21-.1-.31a1.108,1.108,0,0,0-.1-.22.212.212,0,0,0-.03-.05,1.235,1.235,0,0,0-.14-.18.01.01,0,0,1-.01-.01,1.1,1.1,0,0,0-.18-.14c-.02-.01-.03-.02-.05-.03a1.589,1.589,0,0,0-.19-.09.034.034,0,0,0-.02-.01,1.683,1.683,0,0,0-.22-.05h-.06a1.511,1.511,0,0,0-.21.01h-.02a.887.887,0,0,0-.22.06.074.074,0,0,0-.05.02,1.183,1.183,0,0,0-.22.12h0a32.956,32.956,0,0,1-3.11,2.02c-.19.11-.39.22-.59.33-.4.22-.82.43-1.25.65a28.393,28.393,0,0,1-2.73,1.17c-.72.27-1.46.51-2.24.73a1.235,1.235,0,0,0-.91,1.07,1.063,1.063,0,0,0,.06.5c.11.33.2.64.28.94.05.18.1.36.14.53a1.218,1.218,0,0,1,.03.19v.25a.419.419,0,0,1-.01.11c0,.02-.01.05-.01.07a.351.351,0,0,1-.02.1.243.243,0,0,1-.02.07.673.673,0,0,1-.04.1l-.03.06c-.02.03-.03.06-.05.09l-.03.06a.888.888,0,0,1-.07.1c-.01.01-.01.02-.02.03a1.529,1.529,0,0,1-.11.13l-.02.02a.924.924,0,0,0-.1.09.171.171,0,0,0-.05.04l-.09.06-.06.03a.393.393,0,0,1-.09.05l-.06.03a.416.416,0,0,0-.1.04c-.02.01-.04.01-.06.02a.434.434,0,0,1-.11.02c-.02,0-.04.01-.06.01a.5.5,0,0,1-.12.01h-.08a.419.419,0,0,1-.11-.01h-.06l-.18-.03h-.01a23.983,23.983,0,0,1-3.98-1.42c-.23-.1-.46-.21-.7-.33a8.8,8.8,0,0,1-2.89-2.23,30.385,30.385,0,0,1-3.91-.65q-1.215-.3-2.34-.66a29.512,29.512,0,0,1-3.99-1.63c-.48-.24-.93-.48-1.36-.72-.35-.2-.69-.39-1.01-.59-.93-.57-1.68-1.11-2.26-1.54a1.955,1.955,0,0,1-.77-1.6v-.04a2.045,2.045,0,0,1,.12-.6,1.977,1.977,0,0,1,.2-.42,18.479,18.479,0,0,1,1.22-1.68,20.9,20.9,0,0,1,12.56-7.47v-.13h0v-.34c0-.13.01-.27.02-.43s.02-.32.04-.49a2.451,2.451,0,0,1,.04-.27c.02-.19.06-.38.09-.58.06-.3.13-.62.22-.94a8.6,8.6,0,0,1,.35-1.01,3.823,3.823,0,0,1,.16-.36c.06-.11.11-.22.17-.33a6.869,6.869,0,0,1,.91-1.32c.06-.07.12-.14.18-.2a2,2,0,0,1,.22-.19.573.573,0,0,0,.08-.05c.05-.03.11-.06.16-.09.04-.01.07-.02.11-.03a.468.468,0,0,1,.16-.04.5.5,0,0,1,.12-.01c.04,0,.09-.01.13-.01h.02a.86.86,0,0,1,.16.02.254.254,0,0,1,.12.02.741.741,0,0,1,.16.05c.04.02.07.02.11.04a1.468,1.468,0,0,1,.17.1.573.573,0,0,1,.08.05,1.043,1.043,0,0,1,.21.21h0q.15.195.33.39c.12.13.25.27.39.41h0a2.093,2.093,0,0,0,.22.2c.11.1.22.2.34.3s.25.2.39.3a6.517,6.517,0,0,0,.55.36,5.61,5.61,0,0,0,1.93.73c1.41.23,2.79.37,3.86.45q.54.045.96.06a1.668,1.668,0,0,1,1.51,1.2,8.618,8.618,0,0,1,.24.97,7.448,7.448,0,0,1,.11,1,13.688,13.688,0,0,1,0,1.44c.19.07.36.15.54.22a25.911,25.911,0,0,1,2.84,1.35,27.436,27.436,0,0,1,2.69,1.7,1.248,1.248,0,0,0,.22.13c.02.01.04.01.05.02a.88.88,0,0,0,.23.06h.24a.13.13,0,0,0,.06-.01,1.4,1.4,0,0,0,.22-.05c.02-.01.03-.01.04-.02a.919.919,0,0,0,.17-.09.1.1,0,0,0,.05-.04.85.85,0,0,0,.18-.15c.01-.01.01-.02.02-.02a1.093,1.093,0,0,0,.13-.17l.03-.06a.849.849,0,0,0,.09-.24,12.218,12.218,0,0,1,1.57-3.84,4.642,4.642,0,0,1,2.62-1.96h0a1.265,1.265,0,0,1,.26-.04h.01a1,1,0,0,1,.24.04c.02,0,.05.02.07.02l.15.06a.431.431,0,0,1,.07.05,1.034,1.034,0,0,1,.11.09l.07.07c.03.04.06.07.09.11a.332.332,0,0,1,.05.08c.02.04.04.09.06.13l.03.09a1.023,1.023,0,0,1,.02.16c0,.03.01.06.01.08a1.216,1.216,0,0,1-.03.26,10.829,10.829,0,0,0-.36,2.02,5.3,5.3,0,0,0-.01.69c.02.45.04.89.04,1.31a5.628,5.628,0,0,1-.63,3.08,3.537,3.537,0,0,1-.63.71,1.525,1.525,0,0,0-.35.49,1.4,1.4,0,0,0,.37,1.6,4.107,4.107,0,0,1,.54.56,2.265,2.265,0,0,1,.32.52,5.068,5.068,0,0,1,.31.78,12.024,12.024,0,0,1,.35,2.35c.01.22.03.44.04.67a8.354,8.354,0,0,0,.41,2.05c.07.22.14.42.21.61a.822.822,0,0,1,.06.26v.09Z" transform="translate(-6664.96 -1828.87)" fill="#0d94fb" fill-rule="evenodd"/>
      <g id="Group_80" data-name="Group 80" transform="translate(-6664.96 -1828.87)">
        <g id="Group_82" data-name="Group 82">
          <path id="Path_147" data-name="Path 147" d="M5357.96,4211.23c0,24.67,21.54,44.66,48.1,44.66s48.1-20,48.1-44.66" fill="none" stroke="#ffd966" stroke-miterlimit="2.613" stroke-width="10" fill-rule="evenodd"/>
          <path id="Path_150" data-name="Path 150" d="M0,35.36V0" transform="translate(5357.96 4175.87)" fill="none" stroke="#ffd966" stroke-linecap="round" stroke-width="10"/>
          <path id="Path_151" data-name="Path 151" d="M0,35.36V0" transform="translate(5454.17 4175.87)" fill="none" stroke="#ffd966" stroke-linecap="round" stroke-width="10"/>
        </g>
      </g>
      <circle id="Ellipse_16" data-name="Ellipse 16" cx="15.98" cy="15.98" r="15.98" transform="translate(-1233.77 2404.69)" fill="#0d94fb" stroke="#191c24" stroke-miterlimit="2.613" stroke-width="8.33"/>
    </g>
    <line id="Line_30" data-name="Line 30" x2="9.87" transform="translate(-1222.72 2420.67)" fill="none" stroke="#fff" stroke-linecap="round" stroke-linejoin="round" stroke-miterlimit="2.613" stroke-width="4.17"/>
    <line id="Line_31" data-name="Line 31" y1="9.86" transform="translate(-1217.79 2415.74)" fill="none" stroke="#fff" stroke-linecap="round" stroke-linejoin="round" stroke-miterlimit="2.613" stroke-width="4.17"/>
  </g>
</svg>
