<svg xmlns="http://www.w3.org/2000/svg" width="542.651" height="426.482" viewBox="0 0 542.651 426.482">
  <g id="Layer_x0020_1" transform="translate(-5353.464 -4695.477)">
    <g id="_2226694319088">
      <path id="Path_152" data-name="Path 152" d="M5858.37,5044.74l-.03.02c-12.72,7.98-30.19,14.13-53.74,17.28-10.07,1.35-43.12,2.91-63.99,20.63-12.74,10.81-28.75,29.36-74.56,36.83-88.84,14.47-206.62-36.66-226.48-111.38-4.92-18.5-6.87-32.1-7.3-42.94a126.765,126.765,0,0,1,2.07-27.55c.58-3.55,1.17-6.98,1.6-10.52a79.822,79.822,0,0,0-.66-24.69,135.784,135.784,0,0,0-4.7-18.42q-2.205-6.87-3.67-13.15c-.25-1.05-.48-2.07-.69-3.09-4.3-20.37-2.81-36.38,2.52-50.26.39-1.02.8-2.02,1.23-3.02a99.064,99.064,0,0,1,13.41-21.84c.23-.28.46-.57.68-.86.39-.49.78-.98,1.17-1.46,38.27-46.99,76.98-45.13,124.39-20.43,29.13,15.18,51.42,20.17,82.31,8.27,23.67-9.11,49.35-13.61,72.23-11.27a98.021,98.021,0,0,1,16.7,3.11c1.65.46,3.27.96,4.87,1.52a72.558,72.558,0,0,1,17.25,8.58c14.22,9.69,24.54,24.89,28.38,46.81,10.33,58.98,36.99,71.28,60.47,90.96a115.242,115.242,0,0,1,14.13,13.8,90.428,90.428,0,0,1,12.45,19.17q2.055,4.2,3.88,9.01c.16.43.32.86.48,1.3.95,2.61,1.82,5.33,2.58,8.1.76,2.82,1.41,5.73,1.9,8.69,3.93,23.12-1.14,49.34-28.89,66.78Z" fill="#0d94fb"/>
      <path id="Path_153" data-name="Path 153" d="M5495.4,5039.57c1.06,14.85,11.65,22.52,25.83,18.96,34.38-8.61,39.84-34.92,48.66-53.59,7.03-14.87,18.67-28.61,25.33-42.27,4.27-8.76,12.07-27.73-1.19-35.74-14.04-8.49-31.73,6.11-35.95,14.61-27.11,54.65-63.72,83.44-62.68,98.02Z" fill="#ffd966"/>
      <path id="Path_154" data-name="Path 154" d="M5712.26,4978.96c-1.54,10.81-8.91,21.65-10.65,35.85-1.91,15.58-4.05,32.31-6.7,48.27v.02c-.04.2-.07.39-.1.58-.02.14-.05.29-.07.44-1.43,8.56-3.15,18.04-5.06,26.98v.01c-.23,1.07-.45,2.13-.69,3.18-.86,3.86-1.75,7.58-2.66,11.04-.21.81-.43,1.58-.64,2.36l-.01.02c-.7,2.52-1.41,4.86-2.13,6.98a25.44,25.44,0,0,1-2.68,1.78c-.24.07-.49.13-.74.19-4.35,1.06-9.03,2.02-14.06,2.84a208.143,208.143,0,0,1-50.88,1.62l-.05-.01c-.33-.04-.65-.06-.98-.09a260.907,260.907,0,0,1-65.63-14.78,188.612,188.612,0,0,0,7.93-31.33,254.124,254.124,0,0,0,3.22-39.79q.03-3.63-.02-7.2c-.04-2.76-.1-5.49-.2-8.19-.03-1.24-.08-2.47-.13-3.69-.47-11.07-1.3-21.53-2.03-31.09-.14-1.73-.26-3.43-.38-5.09-.02-.26-.03-.52-.05-.77v-.01c-.24-3.35-.46-6.56-.62-9.65a65.768,65.768,0,0,1,.59-11.31c1.26-9.67,4.6-21.67,11.9-27.98l.02-.02.04-.02.02-.01a18.591,18.591,0,0,1,3.69-2.47c10.18-5.11,17.81-7.68,25.84-9.29l.15-.02c.11-.03.23-.05.33-.07,1.09-.22,2.2-.42,3.33-.61,1.63-.27,3.3-.52,5.01-.74.95-.13,1.92-.24,2.91-.36.13-.02.25-.02.38-.04s.23-.03.35-.04a2.707,2.707,0,0,1,.4-.04h.01c1.63-.19,3.33-.37,5.09-.56l.03-.01c.17-.02.33-.04.5-.05l.18-.02c.12-.02.24-.03.36-.04,4.26-.44,8.96-.93,14.33-1.57a36.534,36.534,0,0,1,8.09.03,62.269,62.269,0,0,1,9.2,1.73c.09.03.19.05.28.08,1.3.34,2.63.73,3.96,1.14.14.04.29.09.43.14l.28.09h.01c.28.09.54.19.81.28.17.05.34.11.52.17l.19.07h.01l.16.06c.43.14.87.3,1.3.45.11.04.23.09.34.13,2.7.97,5.37,2.06,7.99,3.2.15.07.31.14.46.21a184.926,184.926,0,0,1,26.67,14.67,81.4,81.4,0,0,1,12.45,11.18c.11.13.2.24.3.36l.02.04c5.35,6.85,9.14,16.64,7.13,30.78Z" fill="#ffd966"/>
      <path id="Path_155" data-name="Path 155" d="M5580.52,4820.72c-5.89,20.82,12.69,34.7,12.69,34.7l10.2-35.7-22.89,1.01Z" fill="#3d3c4b"/>
      <path id="Path_156" data-name="Path 156" d="M5615.08,4907.65s1,5.74,1.16,7.2a27.929,27.929,0,0,1-.02,4.39,27.314,27.314,0,0,1-4.72,13.51c-4.76,7.55,11,14.23,26.08,12.08s16.21-11.65,15.84-16.56c-.17-2.28-2.06-21.91,6.14-36.28,1.01-1.76-8.16-.27-9.69-.87-5.94-2.35-24.98,8.94-32.86,12.11a3.39,3.39,0,0,0-1.93,4.41Z" fill="#f3786c"/>
      <path id="Path_157" data-name="Path 157" d="M5608.63,4905.72c.37.84.7,1.69.98,2.5v.01c.16.08.31.15.45.23.46.22.92.44,1.39.65.59.26,1.17.51,1.76.73.33.13.67.26,1.01.38.1.04.2.07.3.11.26.09.51.18.76.26a26.037,26.037,0,0,1,.92,4.53,22.471,22.471,0,0,1,.1,4,19.153,19.153,0,0,0,2.86,1.15,19.421,19.421,0,0,0,22.67-9.11c.06-.1.11-.21.17-.32a18.508,18.508,0,0,0,1.81-5.13c.32-1.65.7-3.52,1.13-5.67-4.94,2-15.51,5.81-25.29,6.15-2.3.07-4.28.06-6.02-.02a43.92,43.92,0,0,1-5.02-.47Z" fill="#ec5259"/>
      <path id="Path_158" data-name="Path 158" d="M5672.23,4865.8c-.04.11-.09.22-.14.33a117.935,117.935,0,0,1-10.64,20.11c-.33.5-.68.99-1.02,1.46-7.69,10.61-15.69,19.85-28.99,22.89a42.309,42.309,0,0,1-8.01,1.03,41.274,41.274,0,0,1-6.09-.23c-.5-.05-.99-.12-1.49-.19-.29-.04-.57-.08-.86-.13s-.57-.09-.86-.15c-.17-.02-.32-.06-.49-.09l-.47-.09c-.28-.06-.55-.13-.82-.18a41.765,41.765,0,0,1-7.18-2.41l-.14-.06c-.24-.11-.49-.22-.74-.33a2.717,2.717,0,0,1-.35-.16,36.942,36.942,0,0,1-5.78-3.48c-.31-.23-.62-.46-.92-.7a28.368,28.368,0,0,1-5.57-5.75l-.08-.12a29.509,29.509,0,0,1-5.13-15.13c-.86-10.83,2.36-22.79,3.74-33.38.65-4.96.84-9.88,1.29-14.67l.01-.08c.65-6.85,1.82-13.39,5.52-19.33l.02-.03a30.152,30.152,0,0,1,4.13-5.21,39.934,39.934,0,0,1,32.31-11.55c13.43,1.6,28.25,5.64,37.24,16.48,11.49,13.84,8.52,33.96,1.52,51.19Z" fill="#f69880"/>
      <path id="Path_159" data-name="Path 159" d="M5618.7,4852.24a.57.57,0,0,0-1.06-.35,37.841,37.841,0,0,1-6.49,7.98c-4.24,4.22-2.68,8.09,2.7,10.01,3.82,1.36,3.89-1.51,1.4-1.95-3.45-.61-5.65-3.92-1.8-7.39,3.25-2.93,4.91-5.83,5.25-8.3Z" fill="#ec5259"/>
      <path id="Path_160" data-name="Path 160" d="M5674.65,4855.75c-.78,3.41-1.57,6.79-2.48,10.12-.02.09-.05.17-.07.26-2.2,7.99-5.07,15.65-10.09,22.57-6.9,9.55-15.1,18.32-26.88,21.38a49.8,49.8,0,0,1-11.76,1.6,46.79,46.79,0,0,1-6.03-.3c-.5-.05-.99-.12-1.49-.19-.29-.04-.57-.08-.86-.13s-.57-.09-.86-.15c-.17-.02-.32-.06-.49-.09l-.47-.09c-.28-.06-.55-.13-.82-.18a41.765,41.765,0,0,1-7.18-2.41l-.14-.06c-.24-.11-.49-.22-.74-.33a2.717,2.717,0,0,1-.35-.16,36.942,36.942,0,0,1-5.78-3.48c-.31-.23-.62-.46-.92-.7a28.906,28.906,0,0,1-5.33-5.41,1.4,1.4,0,0,1-.23-1.26,2.087,2.087,0,0,1,3.2-1.12,43.186,43.186,0,0,0,15.39,6.85c10.54,2.26,23.52-1.58,31.96-8.22,5.38-4.22,9.65-5.7,16.17-19.09,1.9-3.89,3.32-8.23,5.35-20.56.02-.14-8.39-7.29-5.32-22.98a.84.84,0,0,0-.94-1c-9.86,1.6-26.92-3.22-35.58-7.57a.831.831,0,0,0-1.1.33c-1.81,3.24-9.14,16.45-28.07,11.29l-1.31-.33c.65-6.86,1.82-13.42,5.54-19.36l.05-.04c.17-.15.36-.31.54-.45,6.04-4.66,15.53-6.4,22.82-7.85,6.61-1.31,13.3-2.06,19.92-3.33s15.22,2.59,21.02,5.62a28.737,28.737,0,0,1,13.21,13.42c4.76,10.59,2.61,22.54.13,33.42Z" fill="#f3786c"/>
      <path id="Path_161" data-name="Path 161" d="M5647.69,4838.78a50.492,50.492,0,0,0-16.35-1.27,1.626,1.626,0,0,1-1.81-1.89c.31-1.64,1.6-3.64,6-3.88,4.88-.26,9.57.59,12.06,2.29a4.443,4.443,0,0,1,2.14,3.02,1.593,1.593,0,0,1-2.03,1.72Z" fill="#f3786c"/>
      <path id="Path_162" data-name="Path 162" d="M5647.65,4837.1a50.492,50.492,0,0,0-16.35-1.27,1.618,1.618,0,0,1-1.81-1.89c.31-1.64,1.61-3.64,6-3.88,4.88-.27,9.57.59,12.06,2.29a4.421,4.421,0,0,1,2.13,3.02,1.586,1.586,0,0,1-2.02,1.72Z" fill="#3d3c4b"/>
      <path id="Path_163" data-name="Path 163" d="M5571.69,4809.8a26.044,26.044,0,0,0,3.3,11.35c1.59,2.76,3.92,5.34,7,6.21.27.07.55.15.83.23s.55.13.83.2c11.07,2.55,24.28.25,31.64-8.65.3-.35.98-1.08,1.79-1.93,1.5-1.58,3.4-3.57,3.89-4.28l.03-.05a2.113,2.113,0,0,0,.13.26,13.059,13.059,0,0,0,1.08,1.91,17.52,17.52,0,0,0,2.56,2.95,29.568,29.568,0,0,0,4.47,3.44l.1.07c6.8,4.28,32.15,2.86,34.6,1.2-.22,6-1.09,11.03.25,15.99,1.12,4.15,2.3,9.74,5.82,12.58l.11.09c.89,2.15-7.11,12.72-5.95,16.79,2.96,10.42,15.35,13.52,24.9,12.5,6.95-.74,16.15-3.91,17.88-11.24a19.083,19.083,0,0,0,.37-9.08,15.992,15.992,0,0,0-3.49-6.84,6.327,6.327,0,0,1-.11-7.87c14.17-18.46,10.09-50.14-29.76-55.13a6.575,6.575,0,0,1-5.21-3.9c-10.05-23.24-50.65-23.05-54.23-.88a7.3,7.3,0,0,1-9.88,5.76c-4.34-1.76-9.31-3.15-13.67-2.82-6.28.48-10.78,2.56-13.86,5.54a17.262,17.262,0,0,0-4.24,6.64,22.375,22.375,0,0,0-1.19,8.95Z" fill="#48455c"/>
      <path id="Path_164" data-name="Path 164" d="M5611.54,4834.24a50.625,50.625,0,0,1-16.32-1.65,1.63,1.63,0,0,0-2.12,1.54c.02,1.67.93,3.87,5.21,4.88,4.76,1.13,9.52,1.12,12.28-.11a4.414,4.414,0,0,0,2.64-2.59,1.6,1.6,0,0,0-1.69-2.06Z" fill="#f3786c"/>
      <path id="Path_165" data-name="Path 165" d="M5612.15,4832.43a50.593,50.593,0,0,1-16.32-1.65,1.63,1.63,0,0,0-2.12,1.54c.02,1.67.94,3.87,5.22,4.89,4.76,1.13,9.52,1.12,12.28-.11a4.428,4.428,0,0,0,2.64-2.6,1.6,1.6,0,0,0-1.69-2.06Z" fill="#3d3c4b"/>
      <path id="Path_166" data-name="Path 166" d="M5643.35,4848.16a1.745,1.745,0,0,1,.97.12c.6.41.52,1.06.1,1.6a9.811,9.811,0,0,1-8.76,3.15c-3.04-.49-5.65-1.72-6.47-4.43-.35-1.18.41-1.59,1.07-1.87,1.61-.67,1.71,3.52,5.89,4.07,2.42.32,3.91-.43,7.19-2.65Z" fill="#3d3c4b"/>
      <path id="Path_167" data-name="Path 167" d="M5597.43,4842.31a1.45,1.45,0,0,0-.88-.19c-.65.2-.76.84-.57,1.49a8.975,8.975,0,0,0,6.64,5.7c2.78.48,5.42.11,6.93-2.21a1.465,1.465,0,0,0-.37-2.11c-1.19-1.13-2.54,2.82-6.33,2.05-2.19-.45-3.26-1.62-5.43-4.74Z" fill="#3d3c4b"/>
      <path id="Path_168" data-name="Path 168" d="M5571.69,4809.75a26.068,26.068,0,0,0,3.33,11.35c1.6,2.77,3.94,5.34,7.04,6.21.27.07.56.15.83.23s.56.13.84.2c11.16,2.69,24.66,1.64,32.37-6.98a30.641,30.641,0,0,0,3.78-5.32c7.23,11.58,22.69,12.54,33.5,12.02.2,0,.39-.02.57-.03a18.854,18.854,0,0,0,6.96-1.71c-.98,10.32-2.81,11.77.94,21.72a15.887,15.887,0,0,0,5.55,7.53,17.376,17.376,0,0,0-3.44,14.4c1.1,5.19,7.19,7.74,12.01,9.5a31.033,31.033,0,0,0,17.41,1.31,23.713,23.713,0,0,0,8.32-3.8,2.472,2.472,0,0,0-1.85-4.42,13.726,13.726,0,0,1-2.17.18,20.729,20.729,0,0,1-9.13-2.25c-5.24-2.6-10.15-7.31-11.81-13.02a31.191,31.191,0,0,1-.62-11.85,3.759,3.759,0,0,0-2.4-3.96c-6.34-2.39-11.57-12.69-7.73-22.95a.811.811,0,0,0-1.11-1.02c-9.23,4.4-38.83,6.79-47.21-14.76a2.526,2.526,0,0,0-4.53-.35c-4.37,7.51-10.38,11.34-13.27,12.05-11.73,2.88-28.19-4.29-22.74-19.87a17.306,17.306,0,0,0-4.26,6.64,22.389,22.389,0,0,0-1.2,8.95Z" fill="#3d3c4b"/>
      <path id="Path_169" data-name="Path 169" d="M5659.9,4881c-3.8,7.67-3.94,11.84,1.95,13.6,9.91,2.96,20.9-2.94,23.11-11.19,2.83-10.52-3.95-17.27-12.02-15.94-7.44,1.24-10.43,8.24-13.05,13.53Z" fill="#f3786c"/>
      <path id="Path_170" data-name="Path 170" d="M5676.99,4881a6.828,6.828,0,0,0-2.43-1.05,5.193,5.193,0,0,0-2.48.08,7.531,7.531,0,0,0-2.26,1.06,9.615,9.615,0,0,0-1,.78,6.529,6.529,0,0,0-.83.85,1.7,1.7,0,1,1-2.71-2.05,1.429,1.429,0,0,1,.27-.28l.06-.05a9.672,9.672,0,0,1,1.44-.98,13.717,13.717,0,0,1,1.48-.74,10.232,10.232,0,0,1,3.24-.77,7.122,7.122,0,0,1,3.27.57,8.454,8.454,0,0,1,2.6,1.8.516.516,0,0,1,.03.72.5.5,0,0,1-.63.09l-.05-.03Z" fill="#ec5259"/>
      <path id="Path_171" data-name="Path 171" d="M5618.51,4875.36c-.36-1.58-2.45-2.17-4.28-2.19-2.68-.02-5.89,1.14-6.87,4.5a1.286,1.286,0,0,0,.67,1.59l.24.06a1.145,1.145,0,0,0,1.15-.89,3.775,3.775,0,0,1,2.76-2.47,5.692,5.692,0,0,1,4.28.28,1.023,1.023,0,0,0,1.28.69,1.321,1.321,0,0,0,.77-1.57Z" fill="#ec5259"/>
      <path id="Path_172" data-name="Path 172" d="M5603.89,5012.85c9.79-.93,21.04-13.07,21.14-13.17,47.22-45.08,28.9-82.53,28.89-82.31-5.61,10.55-36.37,16.02-39.62.53-12.69,9.26-15.17,7.34-19.01,40.28-1.54,13.22,3.98,55.11,8.6,54.67Z" fill="#ffd966"/>
      <path id="Path_173" data-name="Path 173" d="M5697.77,4951.77c-13.83,3.67-44.97,20-14.71,85.32Z" fill="#f1c232"/>
      <path id="Path_174" data-name="Path 174" d="M5742.63,5081.04c-.68.53-1.35,1.07-2.01,1.63-8.95,7.6-19.52,19.02-40.91,27.73-.89-12.9-2.48-34.26-4.55-45.88-.08-.47-.17-.94-.25-1.42v-.02l-.18-.96c-.28-1.55-.57-3.1-.87-4.64-.04-.15-.06-.29-.09-.44-.15-.78-.3-1.57-.45-2.34-.96-4.92-1.97-9.76-3-14.48-.13-.61-.26-1.21-.39-1.82-1.36-6.17-2.73-12.14-4.04-17.76-.1-.43-.2-.85-.3-1.28q-1.56-6.615-2.95-12.52c-.11-.48-.23-.96-.34-1.43-.22-.94-.44-1.87-.64-2.77-.11-.45-.21-.91-.31-1.35-.31-1.34-.61-2.64-.89-3.9-1.98-8.82-3.27-15.65-3.27-19.57a76.2,76.2,0,0,1,1.01-13.64c1.27-6.9,4.09-13.25,10.18-16.57,2.71-1.47,9.4-1.76,12-1.19a17.677,17.677,0,0,1,4.41,1.37,8.457,8.457,0,0,1,2.69,2.18c18.39,22.4,30.35,83.24,35.13,131.06Z" fill="#ffd966"/>
      <path id="Path_175" data-name="Path 175" d="M5694.91,5063.1v-.02l-.18-.96c-.28-1.55-.57-3.1-.87-4.64-.04-.15-.06-.29-.09-.44-.15-.78-.3-1.57-.45-2.34-.96-4.92-1.97-9.76-3-14.48-.13-.61-.26-1.21-.39-1.82-.51-2.31-1.02-4.6-1.53-6.85-.45-2.04-.92-4.04-1.37-6.02-.39-1.66-.77-3.29-1.14-4.9v-.01c-.1-.43-.2-.84-.3-1.27q-1.56-6.615-2.95-12.52c-.11-.48-.23-.96-.34-1.43-.22-.93-.43-1.86-.64-2.77-.11-.45-.21-.91-.31-1.35-.31-1.34-.61-2.64-.89-3.9-4.42,12.12-3.89,21.34.46,32.3a49.4,49.4,0,0,1,2.13,7.39v.02a138.754,138.754,0,0,1,2.67,28.77v.01c-17.99,19.82-44.13,3.33-43.61,23.4.41,16.26,9.76,22.59,14.55,24.78-.35.13-.7.24-1.07.36h-.01a301.74,301.74,0,0,0-41.56-2.96c-24.44-.24-15.53,5.55.69,9.55-.2.01-.39.02-.57.02.33.04.66.06.98.09l.05.01a207.635,207.635,0,0,0,50.88-1.62c5.04-.81,9.71-1.78,14.06-2.84.24-.06.49-.12.74-.19,1.12-.28,2.21-.56,3.28-.86,6.37-13.37,8.19-34.11,11.02-51.1-.08-.47-.17-.94-.25-1.42Z" fill="#f1c232"/>
      <path id="Path_176" data-name="Path 176" d="M5632.49,4936.61c-5.61,9.41-8.7,10.53-8.7,10.53s-6.44-.23-7.3-1.33c-1.84-5.94-2.74-11.48.06-15.55s9.31-2.2,9.31-2.2,8.83,4.87,6.63,8.56Z" fill="#ec5259"/>
      <path id="Path_177" data-name="Path 177" d="M5600.89,4964.6c-1.24,4.71-2.35,9.17-3.37,13.39-.31,1.28-.61,2.51-.9,3.73-1.91,8-3.55,15.04-5.22,21.07-3.05,10.99-6.2,18.59-11.45,22.41-9,6.56-10.82,39.48-23.15,49.7,3.41-20.46,3.65-40.51,2.87-58.86,7.14-9.06,13.59-49.68,21.57-59.6,7.48-9.31,12.53-2.7,19.66,8.17Z" fill="#f1c232"/>
      <path id="Path_178" data-name="Path 178" d="M5573.25,4968.38c1.91-8.46,9.38-7.7,15.44-4.31,7.3,4.07,10.77,12.27,5.69,17.16-7.93,7.62-22.44-6.98-21.12-12.84Z" fill="#d4e0e3"/>
      <path id="Path_179" data-name="Path 179" d="M5628.82,4911.61c4.89-6.46,6-13.05-5.19-12.2s-9.61,11.11-9.61,11.11l14.8,1.09Z" fill="#f3786c"/>
      <path id="Path_180" data-name="Path 180" d="M5614.4,4946.33l-4.34-.25c.61,3.28-9.16,19.52-13.55,21.18-9.06,6.21-19.97,4.95-21.68,2.35-.85.91-1.69,1.82-2.46,2.7a5.9,5.9,0,0,0,1.02,7.05c3.56,3.61,10.79,5.9,13.66,6.7,2.04-2.91,4.56-6.59,6.78-10.01,1.54-2.39,7.2-7.82,7.27-7.87l.11-.15c5.45-4.57,13.46-15.87,13.2-21.7Z" fill="#f3786c"/>
      <path id="Path_181" data-name="Path 181" d="M5597.73,4898.83l10.9,3.96C5605.05,4896.68,5598.85,4896.2,5597.73,4898.83Z" fill="#f3786c"/>
      <path id="Path_182" data-name="Path 182" d="M5607.11,4917.28a67.644,67.644,0,0,1-1.46,8.96l-6.22-.23-1.7-.07c.24-2.62.55-5.3.76-7.93a52,52,0,0,0,.13-8.06c-.52-6.29-2.17-11.38-.06-11.93,2.56-.67,7.32,2.02,8.47,10.99a38.345,38.345,0,0,1,.08,8.24Z" fill="#f69880"/>
      <path id="Path_183" data-name="Path 183" d="M5607.11,4917.28l-7.68,8.74-1.7-.07c.24-2.62.55-5.3.76-7.93a33.685,33.685,0,0,1,8.54-8.99,38.345,38.345,0,0,1,.08,8.24Z" fill="#f3786c"/>
      <path id="Path_184" data-name="Path 184" d="M5628.44,4908.47c-5.06,3.91-12.69,6.88-17.17,11.96a15.186,15.186,0,0,0-2.45,3.74c-.04.07-.07.15-.11.24,0,0,2.32,14.15,5.34,20.26a4.211,4.211,0,0,1,.39,1.71c.27,5.88-7.89,17.33-13.34,21.82l-.19.15c-.53.43-1.06.87-1.56,1.33a31.571,31.571,0,0,0-5.53,6.39c-2.22,3.42-4.74,7.1-6.78,10.01-2.23,3.21-3.87,5.49-3.87,5.49s-8.42-6.27-14.11-9.85c-2.59-1.63-.27-5.31,3.3-9.4.78-.89,1.61-1.8,2.46-2.7,3.84-4.07,8.09-8.19,9.39-10.85,3.03-6.22,3.96-16.84,7.79-24.05,8.48-15.99,15.22-28.56,33.43-31.87,2.17-.39,8.69,1.22,3,5.63Z" fill="#f69880"/>
      <path id="Path_185" data-name="Path 185" d="M5611.23,4920.39a15.186,15.186,0,0,0-2.45,3.74l-6.02,1.59s1.75-4.88,8.46-5.33Z" fill="#f3786c"/>
      <path id="Path_186" data-name="Path 186" d="M5628.12,4938.4a3.613,3.613,0,0,1-3.24-1.11c-2.13-1.98-4.52-6.73-7.13-7.1-8.09-1.15-14.8,3.93-16.25,5.12a3.438,3.438,0,0,0-.28.24l-1.37-9.14c20.9-11.26,25.49-2.75,28.7,3.52.39.76,1.41,3.39,1.54,3.81.82,2.43-.3,4.3-1.97,4.66Z" fill="#f69880"/>
      <path id="Path_187" data-name="Path 187" d="M5628.12,4938.4a3.613,3.613,0,0,1-3.24-1.11c-2.13-1.98-4.52-6.73-7.13-7.1a27.947,27.947,0,0,0-13.52,1.59c-.48.2-1.81-1.14,3.07-2.94,11.45-4.22,15.54-1.61,18.85,4.72.22.43,1.92,4.46,1.98,4.83Z" fill="#f3786c"/>
      <path id="Path_188" data-name="Path 188" d="M5626.31,4945.94a2.8,2.8,0,0,1-1.19.01,4.249,4.249,0,0,1-2.06-1.11c-2.14-1.98-3.31-7.41-5.92-7.78-6.14-.87-12.04,2.17-15.25,4.24a24.7,24.7,0,0,0-2.49,1.8l-1.37-8.28c20.89-11.25,25.28-4.43,28.7,2.65.22.46,1.41,3.39,1.55,3.81.81,2.42-.3,4.3-1.96,4.67Z" fill="#f69880"/>
      <path id="Path_189" data-name="Path 189" d="M5626.31,4945.94a2.8,2.8,0,0,1-1.19.01,4.249,4.249,0,0,1-2.06-1.11c-2.14-1.98-4.92-6.86-7.53-7.23-6.14-.87-7.48.63-11.44,1.37-1.25.32-1.19-.61-.4-1.05,12.33-6.85,16.97-1.68,19.56,5.12a4.522,4.522,0,0,0,3.07,2.9Z" fill="#f3786c"/>
      <path id="Path_190" data-name="Path 190" d="M5623.79,4947.26c.22.45,1.41,3.39,1.55,3.81,1.29,3.84-2.24,6.31-5.22,3.56-2.13-1.98-4.23-7.98-6.84-8.35-2.81-.1-4.3-1.24-3.96-2.77.7-3.15,3.26-3.43,5.4-3.15a12.947,12.947,0,0,1,9.08,6.91Z" fill="#f3786c"/>
      <path id="Path_191" data-name="Path 191" d="M5595.09,4942.93c20.9-11.26,25.09-4.16,28.51,2.93.22.44,1.67,4.46,1.81,4.87,1.29,3.84-2.31,4.96-5.29,2.21-2.13-1.98-3.31-7.41-5.92-7.78-4.1-.58-5.48,1.31-8.64,2.76-3.35,1.54-9.86-1.27-10.46-4.91Z" fill="#f69880"/>
      <path id="Path_192" data-name="Path 192" d="M5573.25,4968.38c-15.22,8.79-51.73,27.42-69.99,58.22-1.5,7.31-3.63,30.96,15.16,21.06,3.09-1.63,20.33-1.44,20.35-1.46,4.34-4.86,17.61-21.51,31.11-41.25.78-24.81,3.36-36.57,3.36-36.57Z" fill="#f1c232"/>
      <path id="Path_193" data-name="Path 193" d="M5572.39,4966.8c2.39,7.61,13.76,19.01,20.83,17.14,0,0-37.11,71.07-69.33,80.06-34.24,9.55-42.95-22.74-13.19-46.1,17.95-14.09,61.69-51.09,61.69-51.09Z" fill="#ffd966"/>
      <path id="Path_194" data-name="Path 194" d="M5576.48,4962.93c-.73.39-3.27,3.25-4.84,4.83.68,8.24,9.88,18.34,21.38,16.56.76-1.43,2.53-4.48,2.96-5.33C5586.71,4981.53,5575.01,4969.71,5576.48,4962.93Z" fill="#fefefe"/>
      <path id="Path_195" data-name="Path 195" d="M5728.96,4801.17a8.43,8.43,0,0,1-1.32-.1,8.593,8.593,0,0,1,1.26-17.08,9.1,9.1,0,0,1,1.26.09,8.58,8.58,0,0,1-1.19,17.08Zm3.77-25.39a8.551,8.551,0,0,1-8.57-8.88,98.021,98.021,0,0,1,16.7,3.11A8.525,8.525,0,0,1,5732.73,4775.78Z" fill="#2f73b8"/>
      <path id="Path_196" data-name="Path 196" d="M5726.26,4790.19a9.606,9.606,0,1,1,0-.01Zm27.24-61.96c-1.35,14.17-7.27,22.3-20.12,27.27-3.06,1.18-4.5,7.09-4.69,9.13a8.584,8.584,0,0,1-17.09-1.62c.18-1.9,2.02-18.23,15.64-23.57,6.12-2.37,8.54-4.64,9.32-12.82a12.837,12.837,0,0,0-25.56-2.42,8.579,8.579,0,1,1-17.08-1.62,29.923,29.923,0,0,1,59.58,5.64Z" fill="#fdbc30"/>
      <path id="Path_197" data-name="Path 197" d="M5853.59,5010.17a9.931,9.931,0,0,1-3.74-.74,9.571,9.571,0,1,1,3.75.74Zm10.83-26.38a9.968,9.968,0,0,1-3.74-.74,9.466,9.466,0,0,1-5.15-12.34c.78-1.89,7.63-17.79,22.89-19.84q2.055,4.2,3.88,9.01c.16.43.32.86.48,1.3.95,2.61,1.82,5.33,2.58,8.1-1.37.21-2.78.37-4.26.48-3.63.28-7.07,6.08-7.94,8.2a9.422,9.422,0,0,1-8.75,5.84Zm-5.89-48.56a9.338,9.338,0,0,1-3.63-.73,9.6,9.6,0,0,1-5.1-12.48,32.376,32.376,0,0,1,2.05-4.13,115.242,115.242,0,0,1,14.13,13.8,9.679,9.679,0,0,1-7.45,3.54Z" fill="#2f73b8"/>
      <path id="Path_198" data-name="Path 198" d="M5849.9,4996.82a9.535,9.535,0,1,1-6.17-12.12A9.5,9.5,0,0,1,5849.9,4996.82Zm44.58-60.56c-4.89,15.03-13.3,22.41-28.43,24.68-3.61.54-6.6,6.59-7.31,8.76a9.535,9.535,0,0,1-18.13-5.91c.66-2.01,6.62-19.27,22.68-21.75,7.21-1.08,10.39-2.96,13.22-11.63a14.263,14.263,0,0,0-27.12-8.84,9.533,9.533,0,1,1-18.13-5.9,33.246,33.246,0,1,1,63.22,20.6Z" fill="#fdbc30"/>
      <path id="Path_199" data-name="Path 199" d="M5451.42,4941.56a13.22,13.22,0,0,1-3.64-25.9,13.806,13.806,0,0,1,3.73-.52,13.2,13.2,0,0,1,3.48,25.92,12.985,12.985,0,0,1-3.57.5Zm-10.8-37.99a13.078,13.078,0,0,1-5.33-1.14h0a135.784,135.784,0,0,0-4.7-18.42q-2.205-6.87-3.67-13.15a34.268,34.268,0,0,1,10.39-19.31c7.44-6.8,9.65-11.42,6.2-23.57a19.6,19.6,0,0,0-13.54-13.49,99.064,99.064,0,0,1,13.41-21.84c.23-.28.46-.57.68-.86a46.028,46.028,0,0,1,24.63,29.03c5.98,21.05,2.02,36.02-13.63,50.31-3.72,3.41-2.49,12.68-1.63,15.72a13.291,13.291,0,0,1-12.82,16.72Z" fill="#0069b8"/>
      <path id="Path_200" data-name="Path 200" d="M5450.27,4921.79a13.2,13.2,0,1,1-17.45-7.07,13.142,13.142,0,0,1,17.45,7.07Zm-8.43-103.76c8.54,20.15,6.46,35.49-7.3,51.61-3.28,3.84-.91,12.89.32,15.79a13.2,13.2,0,0,1-24.3,10.31c-1.15-2.7-10.59-26.15,3.94-43.33,6.55-7.68,8.17-12.53,3.24-24.17a19.746,19.746,0,0,0-36.36,15.41,13.2,13.2,0,1,1-24.3,10.3,46.031,46.031,0,1,1,84.77-35.91Z" fill="#fdbc30"/>
      <path id="Path_201" data-name="Path 201" d="M5605.21,5014.91l-10.26-1.52c.52-2.07,2-2.3,4.07-1.99a41.807,41.807,0,0,1,4.54.96l1.24-4.92a22.59,22.59,0,0,0-4.49-1.19c-6.13-.91-9.63,1.31-10.89,6.31l-2.47-.37-1.3,5.13,2.47.37-3.2,12.7,5.53.82,3.21-12.7,4.72.7-3.2,12.69,5.54.82,4.5-17.83Zm7.8,6.56c.16-.64.84-.91,1.8-.77a2.393,2.393,0,0,1,2.08,1.94l5.35-1.76A7.3,7.3,0,0,0,5616,5016c-3.84-.57-7.72.89-8.71,4.78-1.56,6.17,7.78,6.48,7.29,8.44-.18.71-.94,1.01-2.27.81a2.713,2.713,0,0,1-2.61-2.57l-5.46,1.93c.71,3.1,3.17,4.87,6.86,5.42,3.98.59,8.12-.61,9.15-4.71,1.67-6.59-7.76-6.59-7.24-8.62Zm24.1-2.35a7.156,7.156,0,0,0-5.83,1.39l2.23-8.81-5.54-.82-6.31,24.96,5.54.82,2.46-9.73c.64-2.54,2.33-3.47,4.36-3.17a2.718,2.718,0,0,1,2.39,3.72l-2.57,10.17,5.54.82,2.77-10.95C5643.37,5022.71,5640.84,5019.67,5637.11,5019.12Zm9.09,20.87a4,4,0,0,0,4.36-2.87,3.141,3.141,0,0,0-2.65-3.91,4.01,4.01,0,0,0-4.37,2.87,3.134,3.134,0,0,0,2.65,3.9Z" fill="rgba(255,255,255,0.87)"/>
    </g>
  </g>
</svg>
