<svg xmlns="http://www.w3.org/2000/svg" width="110.44" height="110.42" viewBox="0 0 110.44 110.42">
  <g id="Layer_x0020_1" transform="translate(-5785.75 -4154.91)">
    <g id="_2226702752384">
      <g id="Group_65" data-name="Group 65">
        <path id="Path_119" data-name="Path 119" d="M5785.76,4253.4a11.941,11.941,0,0,0,11.93,11.93h86.56a11.95,11.95,0,0,0,11.94-11.93v-40.04H5785.76Zm73.68-12.22h10.26a2.544,2.544,0,0,0,2.54-2.54v-10.26c0-4.28,6.47-4.28,6.47,0v10.26a9.017,9.017,0,0,1-9.01,9.01h-10.26c-4.28,0-4.28-6.47,0-6.47Zm-56.21-12.8c0-4.28,6.47-4.28,6.47,0v10.26a2.544,2.544,0,0,0,2.54,2.54h10.26c4.28,0,4.28,6.47,0,6.47h-10.26a9.017,9.017,0,0,1-9.01-9.01v-10.26Z" fill="#0d94fb" fill-rule="evenodd"/>
        <path id="Path_120" data-name="Path 120" d="M5884.24,4154.91h-86.56a11.95,11.95,0,0,0-11.93,11.94v40.04h110.43v-40.04A11.958,11.958,0,0,0,5884.24,4154.91Zm-61.75,23.72h-10.26a2.544,2.544,0,0,0-2.54,2.54v10.26c0,4.28-6.47,4.28-6.47,0v-10.26a9.017,9.017,0,0,1,9.01-9.01h10.26c4.28,0,4.28,6.47,0,6.47Zm56.21,12.8c0,4.28-6.47,4.28-6.47,0v-10.26a2.544,2.544,0,0,0-2.54-2.54h-10.26c-4.28,0-4.28-6.47,0-6.47h10.26a9.017,9.017,0,0,1,9.01,9.01v10.26Z" fill="#ffd966" fill-rule="evenodd"/>
      </g>
    </g>
  </g>
</svg>
